<?xml version="1.0" encoding="utf-8"?>
<!-- Generator: Adobe Illustrator 15.0.0, SVG Export Plug-In . SVG Version: 6.00 Build 0)  -->
<!DOCTYPE svg PUBLIC "-//W3C//DTD SVG 1.1//EN" "http://www.w3.org/Graphics/SVG/1.1/DTD/svg11.dtd">
<svg version="1.1" xmlns="http://www.w3.org/2000/svg" xmlns:xlink="http://www.w3.org/1999/xlink" x="0px" y="0px" width="144px"
	 height="144px" viewBox="0 0 144 144" enable-background="new 0 0 144 144" xml:space="preserve">
<g id="Layer_2">
	<rect fill="#682C91" width="144" height="144"/>
</g>
<g id="Layer_3">
	<g>
		<path fill="#FFFFFF" d="M85.105,82.855c0,6.914,0,14.557-4.852,20.379c-6.065,7.157-16.741,7.157-18.924,7.157
			c-4.974,0-9.705-0.849-14.193-3.275c-1.577-0.849-5.216-2.911-7.4-7.399c-2.184-4.367-2.547-9.462-2.547-14.071V55.483h-8.006
			v14.271c0,17.832-0.364,26.566,4.125,34.451c2.184,3.64,4.974,6.065,6.187,7.036c8.37,6.551,18.803,6.672,21.957,6.672
			c13.707,0,20.986-5.095,24.868-9.583c5.337-6.309,6.429-13.708,6.672-21.593c0.242-5.944,0.242-11.767,0.242-17.711V55.483h-8.128
			V82.855z"/>
		<path fill="#FFFFFF" d="M106.696,30.087v8.101H93.167c-0.316-1.929-1.979-3.405-3.998-3.405c-2.019,0-3.681,1.477-3.997,3.405
			H37.19v-8.101h-8.006v17.52h8.006v-8.102h47.982c0.316,1.93,1.979,3.405,3.997,3.405c2.02,0,3.682-1.476,3.998-3.405h13.529v8.102
			h8.127v-17.52H106.696z"/>
		<rect x="106.696" y="55.483" fill="#FFFFFF" width="8.127" height="60.246"/>
	</g>
</g>
</svg>
